<?xml version="1.0" standalone="no"?>
<!DOCTYPE svg PUBLIC "-//W3C//DTD SVG 1.0//EN" "http://www.w3.org/TR/2001/REC-SVG-20010904/DTD/svg10.dtd">
<svg xmlns="http://www.w3.org/2000/svg" xmlns:xlink="http://www.w3.org/1999/xlink" id="body_1" width="330" height="100">

<g transform="matrix(1.1494253 0 0 1.1494253 0.057474773 -0)">
    <path d="M101.619 54.3759L101.619 31.2694L109.805 31.2694C 118.012 31.2694 122.115 35.0238 122.115 42.5326C 122.115 46.1312 120.993 49.0048 118.748 51.1532C 116.513 53.3016 113.532 54.3759 109.805 54.3759L109.805 54.3759L101.619 54.3759zM106.824 35.5072L106.824 50.1542L109.402 50.1542C 111.658 50.1542 113.425 49.4774 114.703 48.1239C 115.992 46.7704 116.637 44.9281 116.637 42.597C 116.637 40.3949 115.998 38.6654 114.719 37.4086C 113.452 36.141 111.669 35.5072 109.37 35.5072L109.37 35.5072L106.824 35.5072zM140.275 47.576L129.511 47.576C 129.683 49.9716 131.193 51.1693 134.039 51.1693C 135.855 51.1693 137.45 50.7396 138.825 49.8802L138.825 49.8802L138.825 53.5541C 137.3 54.3705 135.318 54.7787 132.879 54.7787C 130.215 54.7787 128.147 54.0428 126.676 52.5712C 125.204 51.0887 124.468 49.0262 124.468 46.3837C 124.468 43.6444 125.263 41.4745 126.853 39.8739C 128.443 38.2733 130.398 37.473 132.718 37.473C 135.124 37.473 136.983 38.1874 138.293 39.6161C 139.615 41.0448 140.275 42.9838 140.275 45.433L140.275 45.433L140.275 47.576zM135.554 44.4501C 135.554 42.0868 134.598 40.9052 132.686 40.9052C 131.869 40.9052 131.16 41.2435 130.559 41.9203C 129.968 42.597 129.608 43.4403 129.479 44.4501L129.479 44.4501L135.554 44.4501zM158.129 47.576L147.365 47.576C 147.537 49.9716 149.046 51.1693 151.893 51.1693C 153.708 51.1693 155.303 50.7396 156.678 49.8802L156.678 49.8802L156.678 53.5541C 155.153 54.3705 153.171 54.7787 150.733 54.7787C 148.069 54.7787 146.001 54.0428 144.529 52.5712C 143.057 51.0887 142.322 49.0262 142.322 46.3837C 142.322 43.6444 143.116 41.4745 144.706 39.8739C 146.296 38.2733 148.251 37.473 150.572 37.473C 152.978 37.473 154.836 38.1874 156.147 39.6161C 157.468 41.0448 158.129 42.9838 158.129 45.433L158.129 45.433L158.129 47.576zM153.407 44.4501C 153.407 42.0868 152.451 40.9052 150.539 40.9052C 149.723 40.9052 149.014 41.2435 148.412 41.9203C 147.822 42.597 147.462 43.4403 147.333 44.4501L147.333 44.4501L153.407 44.4501zM166.314 52.4584L166.25 52.4584L166.25 61.9652L161.158 61.9652L161.158 37.8759L166.25 37.8759L166.25 40.3573L166.314 40.3573C 167.571 38.4344 169.338 37.473 171.615 37.473C 173.753 37.473 175.402 38.2089 176.562 39.6805C 177.733 41.1415 178.319 43.1342 178.319 45.6586C 178.319 48.4086 177.636 50.6161 176.272 52.2811C 174.919 53.9462 173.114 54.7787 170.858 54.7787C 168.871 54.7787 167.356 54.0052 166.314 52.4584zM166.169 45.6908L166.169 47.0121C 166.169 48.1508 166.47 49.08 167.072 49.7997C 167.673 50.5194 168.463 50.8793 169.44 50.8793C 170.6 50.8793 171.497 50.4335 172.131 49.5419C 172.776 48.6395 173.098 47.3666 173.098 45.723C 173.098 42.8226 171.97 41.3724 169.714 41.3724C 168.672 41.3724 167.818 41.7699 167.152 42.5648C 166.497 43.349 166.169 44.391 166.169 45.6908zM181.058 53.4896L181.058 48.3334C 181.992 49.1176 183.008 49.7084 184.103 50.1058C 185.199 50.4926 186.305 50.6859 187.423 50.6859C 188.078 50.6859 188.647 50.6268 189.131 50.5087C 189.625 50.3905 190.033 50.2294 190.355 50.0253C 190.688 49.8104 190.935 49.5634 191.096 49.2841C 191.258 48.994 191.338 48.6825 191.338 48.3495C 191.338 47.8983 191.209 47.4955 190.951 47.141C 190.694 46.7865 190.339 46.4589 189.888 46.1581C 189.448 45.8573 188.921 45.5673 188.309 45.288C 187.697 45.0087 187.036 44.724 186.327 44.434C 184.522 43.682 183.174 42.7635 182.282 41.6786C 181.402 40.5936 180.961 39.2831 180.961 37.7469C 180.961 36.5438 181.203 35.5126 181.686 34.6532C 182.17 33.7831 182.825 33.0687 183.652 32.5101C 184.49 31.9515 185.457 31.5433 186.552 31.2855C 187.648 31.017 188.808 30.8827 190.033 30.8827C 191.236 30.8827 192.3 30.9579 193.223 31.1083C 194.158 31.2479 195.017 31.4681 195.802 31.7689L195.802 31.7689L195.802 36.5868C 195.415 36.3182 194.99 36.0819 194.529 35.8778C 194.077 35.6737 193.61 35.5072 193.127 35.3783C 192.643 35.2386 192.16 35.1366 191.677 35.0721C 191.204 35.0077 190.753 34.9755 190.323 34.9755C 189.732 34.9755 189.195 35.0345 188.712 35.1527C 188.228 35.2601 187.82 35.4159 187.487 35.62C 187.154 35.8241 186.896 36.0712 186.714 36.3612C 186.531 36.6405 186.44 36.9574 186.44 37.3119C 186.44 37.6986 186.542 38.0477 186.746 38.3593C 186.95 38.66 187.24 38.9501 187.616 39.2294C 187.992 39.4979 188.448 39.7665 188.986 40.035C 189.523 40.2928 190.13 40.5614 190.806 40.8407C 191.73 41.2274 192.557 41.641 193.288 42.0814C 194.029 42.5111 194.663 42.9999 195.189 43.5477C 195.716 44.0956 196.118 44.724 196.398 45.433C 196.677 46.1312 196.817 46.9476 196.817 47.8822C 196.817 49.1713 196.57 50.2562 196.075 51.1371C 195.592 52.0072 194.931 52.7162 194.094 53.264C 193.256 53.8011 192.278 54.1879 191.161 54.4242C 190.054 54.6605 188.884 54.7787 187.648 54.7787C 186.381 54.7787 185.172 54.6713 184.023 54.4564C 182.884 54.2416 181.896 53.9193 181.058 53.4896zM205.276 52.4584L205.212 52.4584L205.212 61.9652L200.12 61.9652L200.12 37.8759L205.212 37.8759L205.212 40.3573L205.276 40.3573C 206.533 38.4344 208.3 37.473 210.577 37.473C 212.715 37.473 214.364 38.2089 215.524 39.6805C 216.695 41.1415 217.281 43.1342 217.281 45.6586C 217.281 48.4086 216.598 50.6161 215.234 52.2811C 213.881 53.9462 212.076 54.7787 209.82 54.7787C 207.833 54.7787 206.318 54.0052 205.276 52.4584zM205.131 45.6908L205.131 47.0121C 205.131 48.1508 205.432 49.08 206.033 49.7997C 206.635 50.5194 207.425 50.8793 208.402 50.8793C 209.562 50.8793 210.459 50.4335 211.093 49.5419C 211.738 48.6395 212.06 47.3666 212.06 45.723C 212.06 42.8226 210.932 41.3724 208.676 41.3724C 207.634 41.3724 206.78 41.7699 206.114 42.5648C 205.459 43.349 205.131 44.391 205.131 45.6908zM235.408 47.576L224.644 47.576C 224.816 49.9716 226.325 51.1693 229.172 51.1693C 230.988 51.1693 232.583 50.7396 233.958 49.8802L233.958 49.8802L233.958 53.5541C 232.432 54.3705 230.45 54.7787 228.012 54.7787C 225.348 54.7787 223.28 54.0428 221.808 52.5712C 220.337 51.0887 219.601 49.0262 219.601 46.3837C 219.601 43.6444 220.396 41.4745 221.986 39.8739C 223.575 38.2733 225.531 37.473 227.851 37.473C 230.257 37.473 232.115 38.1874 233.426 39.6161C 234.747 41.0448 235.408 42.9838 235.408 45.433L235.408 45.433L235.408 47.576zM230.687 44.4501C 230.687 42.0868 229.731 40.9052 227.819 40.9052C 227.002 40.9052 226.293 41.2435 225.692 41.9203C 225.101 42.597 224.741 43.4403 224.612 44.4501L224.612 44.4501L230.687 44.4501zM253.261 47.576L242.498 47.576C 242.67 49.9716 244.179 51.1693 247.026 51.1693C 248.841 51.1693 250.436 50.7396 251.811 49.8802L251.811 49.8802L251.811 53.5541C 250.286 54.3705 248.304 54.7787 245.865 54.7787C 243.201 54.7787 241.134 54.0428 239.662 52.5712C 238.19 51.0887 237.454 49.0262 237.454 46.3837C 237.454 43.6444 238.249 41.4745 239.839 39.8739C 241.429 38.2733 243.384 37.473 245.704 37.473C 248.111 37.473 249.969 38.1874 251.28 39.6161C 252.601 41.0448 253.261 42.9838 253.261 45.433L253.261 45.433L253.261 47.576zM248.54 44.4501C 248.54 42.0868 247.584 40.9052 245.672 40.9052C 244.856 40.9052 244.147 41.2435 243.545 41.9203C 242.954 42.597 242.594 43.4403 242.466 44.4501L242.466 44.4501L248.54 44.4501zM272.436 54.3759L267.344 54.3759L267.344 52.1039L267.28 52.1039C 266.12 53.8871 264.417 54.7787 262.172 54.7787C 260.11 54.7787 258.45 54.0536 257.193 52.6034C 255.936 51.1425 255.308 49.1068 255.308 46.4965C 255.308 43.7679 256.001 41.5819 257.386 39.9384C 258.772 38.2948 260.588 37.473 262.833 37.473C 264.96 37.473 266.442 38.2357 267.28 39.7611L267.28 39.7611L267.344 39.7611L267.344 29.9481L272.436 29.9481L272.436 54.3759zM267.441 46.3514L267.441 45.1107C 267.441 44.0365 267.13 43.1449 266.507 42.4359C 265.884 41.7269 265.073 41.3724 264.073 41.3724C 262.946 41.3724 262.065 41.8182 261.431 42.7098C 260.797 43.5907 260.48 44.8046 260.48 46.3514C 260.48 47.8016 260.786 48.9188 261.399 49.703C 262.011 50.4872 262.86 50.8793 263.945 50.8793C 264.976 50.8793 265.814 50.4657 266.458 49.6385C 267.114 48.8114 267.441 47.7157 267.441 46.3514z" stroke="none" fill="#000000" fill-rule="nonzero" />
    <path d="M39.1268 56.5563C 41.4335 54.2496 44.6392 53.7153 46.2868 55.363C 47.9345 57.0106 47.4002 60.2163 45.0935 62.523C 42.7868 64.8297 28.9835 72.6663 28.9835 72.6663C 28.9835 72.6663 36.8201 58.863 39.1268 56.5563z" stroke="none" fill="#FFC60F" fill-rule="nonzero" />
    <path transform="matrix(0.70710677 0.7071067 -0.7071067 0.70710677 31.681961 -24.233828)"  d="M48.89097 26.1266C 48.89097 27.17516 48.52025 28.070162 47.778805 28.811605C 47.03736 29.55305 46.142357 29.92377 45.0938 29.92377C 44.045242 29.92377 43.150238 29.55305 42.408794 28.811605C 41.66735 28.070162 41.29663 27.17516 41.29663 26.1266C 41.29663 25.078041 41.66735 24.18304 42.408794 23.441595C 43.150238 22.700151 44.045242 22.32943 45.0938 22.32943C 46.142357 22.32943 47.03736 22.700151 47.778805 23.441595C 48.52025 24.18304 48.89097 25.078041 48.89097 26.1266C 48.89097 26.170788 48.890198 26.214962 48.888657 26.259119" stroke="none" fill="#F17F00" fill-rule="nonzero" />
    <path transform="matrix(0.70710677 0.7071067 -0.7071067 0.70710677 47.19536 -30.65969)"  d="M64.40437 41.64C 64.40437 42.68856 64.03365 43.58356 63.292206 44.325005C 62.550766 45.06645 61.65576 45.437172 60.6072 45.43717C 59.558643 45.437172 58.663643 45.06645 57.922195 44.325005C 57.180756 43.58356 56.810036 42.68856 56.81003 41.64C 56.810036 40.591442 57.180756 39.69644 57.922195 38.954994C 58.663643 38.213554 59.558643 37.84283 60.6072 37.84283C 61.65576 37.84283 62.550766 38.213554 63.292206 38.954994C 64.03365 39.69644 64.40437 40.591442 64.40437 41.64C 64.40437 41.68419 64.4036 41.728363 64.402054 41.77252" stroke="none" fill="#F17F00" fill-rule="nonzero" />
    <path transform="matrix(0.70710677 0.7071067 -0.7071067 0.70710677 37.55661 -53.92969)"  d="M87.67437 18.37C 87.67437 19.41856 87.30365 20.313562 86.5622 21.055006C 85.820755 21.79645 84.92576 22.167171 83.8772 22.167171C 82.82864 22.167171 81.93364 21.79645 81.19219 21.055006C 80.450745 20.313562 80.080025 19.41856 80.080025 18.37C 80.080025 17.321442 80.450745 16.426441 81.19219 15.684997C 81.93364 14.943554 82.82864 14.572832 83.8772 14.572831C 84.92576 14.572832 85.820755 14.943554 86.5622 15.684997C 87.30365 16.426441 87.67437 17.321442 87.67437 18.37C 87.67437 18.414188 87.6736 18.45836 87.67205 18.50252" stroke="none" fill="#F17F00" fill-rule="nonzero" />
    <path transform="matrix(0.70710677 0.7071067 -0.7071067 0.70710677 45.08051 -17.200996)"  d="M47.10087 45.8165C 47.10087 46.86506 46.73015 47.760063 45.988705 48.501507C 45.24726 49.24295 44.352257 49.613674 43.3037 49.61367C 42.255142 49.613674 41.36014 49.24295 40.618694 48.501507C 39.877254 47.760063 39.50653 46.86506 39.50653 45.8165C 39.50653 44.767944 39.877254 43.872944 40.618694 43.131496C 41.36014 42.390057 42.255142 42.019333 43.3037 42.019333C 44.352257 42.019333 45.24726 42.390057 45.988705 43.131496C 46.73015 43.872944 47.10087 44.767944 47.10087 45.8165C 47.10087 45.860687 47.100098 45.90486 47.098557 45.94902" stroke="none" fill="#F17F00" fill-rule="nonzero" />
    <path transform="matrix(0.70710677 0.7071067 -0.7071067 0.70710677 62.11236 -36.838516)"  d="M79.32137 56.557C 79.32137 57.60556 78.95065 58.500565 78.209206 59.242004C 77.46776 59.98345 76.57276 60.35417 75.5242 60.354168C 74.47565 60.35417 73.58064 59.98345 72.839195 59.242004C 72.09775 58.500565 71.72703 57.60556 71.72703 56.557C 71.72703 55.508442 72.09775 54.61344 72.839195 53.871994C 73.58064 53.130554 74.47565 52.759834 75.5242 52.75983C 76.57276 52.759834 77.46776 53.130554 78.209206 53.871994C 78.95065 54.61344 79.32137 55.508442 79.32137 56.557C 79.32137 56.60119 79.3206 56.645363 79.31905 56.689518" stroke="none" fill="#F17F00" fill-rule="nonzero" />
    <path transform="matrix(0.70710677 0.7071067 -0.7071067 0.70710677 57.610943 -22.391335)"  d="M59.63137 58.3469C 59.631374 59.395462 59.26065 60.290466 58.519207 61.031906C 57.777763 61.773354 56.882763 62.144073 55.8342 62.14407C 54.785645 62.144073 53.890644 61.773354 53.149197 61.031906C 52.407757 60.290466 52.037033 59.395462 52.037033 58.3469C 52.037033 57.298344 52.407757 56.403343 53.149197 55.661896C 53.890644 54.920456 54.785645 54.549736 55.8342 54.549732C 56.882763 54.549736 57.777763 54.920456 58.519207 55.661896C 59.26065 56.403343 59.631374 57.298344 59.63137 58.3469C 59.631374 58.39109 59.630604 58.435265 59.62906 58.47942" stroke="none" fill="#F17F00" fill-rule="nonzero" />
    <path d="M44.9435 26.2895L83.8057 18.3551" stroke="#F17F00" stroke-width="1.5" fill="none" />
    <path d="M75.3605 57.0021L83.8786 18.2091" stroke="#F17F00" stroke-width="1.5" fill="none" />
    <path d="M45.4887 25.6734L43.4618 45.8914" stroke="#F17F00" stroke-width="1.5" fill="none" />
    <path d="M43.1252 45.6813L61.0254 41.2893" stroke="#F17F00" stroke-width="1.5" fill="none" />
    <path d="M61.1444 41.1853L56.1741 58.7838" stroke="#F17F00" stroke-width="1.5" fill="none" />
    <path d="M55.7643 58.0542L75.8159 56.1765" stroke="#F17F00" stroke-width="1.5" fill="none" />
    <path d="M55.4005 58.5749L44.9725 25.8883" stroke="#F17F00" stroke-width="1.5" fill="none" />
    <path d="M75.6647 56.5722L43.083 46.5333" stroke="#F17F00" stroke-width="1.5" fill="none" />
    <path d="M60.3182 41.4698L83.8676 18.2344" stroke="#F17F00" stroke-width="1.5" fill="none" />
</g>
</svg>
