<svg width="287" height="107" viewBox="0 0 287 107" fill="none" xmlns="http://www.w3.org/2000/svg">
<g clip-path="url(#clip0)">
<rect width="287" height="107" fill="white"/>
<path d="M110.738 65.5H108.096V62.6963H108.031C106.807 64.8232 104.916 65.8867 102.359 65.8867C100.286 65.8867 98.6265 65.1509 97.3804 63.6792C96.145 62.1968 95.5273 60.1826 95.5273 57.6367C95.5273 54.9082 96.2148 52.7222 97.5898 51.0786C98.9648 49.4351 100.796 48.6133 103.084 48.6133C105.351 48.6133 107 49.5049 108.031 51.2881H108.096V41.0723H110.738V65.5ZM108.096 58.0396V55.6064C108.096 54.2744 107.655 53.1465 106.774 52.2227C105.894 51.2988 104.776 50.8369 103.423 50.8369C101.812 50.8369 100.544 51.4277 99.6201 52.6094C98.6963 53.791 98.2344 55.4238 98.2344 57.5078C98.2344 59.4092 98.6748 60.9131 99.5557 62.0195C100.447 63.1152 101.64 63.6631 103.133 63.6631C104.604 63.6631 105.797 63.1313 106.71 62.0679C107.634 61.0044 108.096 59.6616 108.096 58.0396ZM129.349 57.9106H117.699C117.742 59.7476 118.236 61.1655 119.182 62.1646C120.127 63.1636 121.427 63.6631 123.081 63.6631C124.939 63.6631 126.647 63.0508 128.205 61.8262V64.3076C126.755 65.3604 124.837 65.8867 122.453 65.8867C120.122 65.8867 118.29 65.1401 116.958 63.647C115.626 62.1431 114.96 60.0322 114.96 57.3145C114.96 54.7471 115.685 52.6577 117.135 51.0464C118.596 49.4243 120.406 48.6133 122.565 48.6133C124.725 48.6133 126.395 49.3115 127.577 50.708C128.758 52.1045 129.349 54.0435 129.349 56.5249V57.9106ZM126.642 55.6709C126.631 54.1455 126.261 52.9585 125.53 52.1099C124.811 51.2612 123.806 50.8369 122.517 50.8369C121.271 50.8369 120.213 51.2827 119.343 52.1743C118.473 53.0659 117.936 54.2314 117.731 55.6709H126.642ZM146.623 57.9106H134.973C135.016 59.7476 135.51 61.1655 136.455 62.1646C137.4 63.1636 138.7 63.6631 140.354 63.6631C142.213 63.6631 143.921 63.0508 145.479 61.8262V64.3076C144.028 65.3604 142.111 65.8867 139.726 65.8867C137.395 65.8867 135.563 65.1401 134.231 63.647C132.899 62.1431 132.233 60.0322 132.233 57.3145C132.233 54.7471 132.958 52.6577 134.409 51.0464C135.87 49.4243 137.68 48.6133 139.839 48.6133C141.998 48.6133 143.668 49.3115 144.85 50.708C146.032 52.1045 146.623 54.0435 146.623 56.5249V57.9106ZM143.916 55.6709C143.905 54.1455 143.534 52.9585 142.804 52.1099C142.084 51.2612 141.08 50.8369 139.791 50.8369C138.544 50.8369 137.486 51.2827 136.616 52.1743C135.746 53.0659 135.209 54.2314 135.005 55.6709H143.916ZM153.342 63.1152H153.277V73.0894H150.635V49H153.277V51.9004H153.342C154.642 49.709 156.543 48.6133 159.046 48.6133C161.173 48.6133 162.833 49.3545 164.025 50.8369C165.217 52.3086 165.813 54.2852 165.813 56.7666C165.813 59.5273 165.142 61.7402 163.799 63.4053C162.457 65.0596 160.62 65.8867 158.289 65.8867C156.151 65.8867 154.502 64.9629 153.342 63.1152ZM153.277 56.4604V58.7646C153.277 60.1289 153.718 61.2891 154.599 62.2451C155.49 63.1904 156.618 63.6631 157.982 63.6631C159.583 63.6631 160.834 63.0508 161.737 61.8262C162.65 60.6016 163.106 58.8989 163.106 56.7183C163.106 54.8813 162.682 53.4419 161.833 52.3999C160.985 51.3579 159.835 50.8369 158.385 50.8369C156.849 50.8369 155.614 51.374 154.679 52.4482C153.745 53.5117 153.277 54.8491 153.277 56.4604ZM169.036 64.9038V62.0679C170.476 63.1313 172.06 63.6631 173.79 63.6631C176.11 63.6631 177.27 62.8896 177.27 61.3428C177.27 60.9023 177.168 60.5317 176.964 60.231C176.771 59.9194 176.502 59.6455 176.158 59.4092C175.825 59.1729 175.428 58.9634 174.966 58.7808C174.515 58.5874 174.026 58.3887 173.5 58.1846C172.769 57.8945 172.125 57.6045 171.566 57.3145C171.018 57.0137 170.556 56.6807 170.18 56.3154C169.815 55.9395 169.536 55.5151 169.342 55.0425C169.16 54.5698 169.068 54.0166 169.068 53.3828C169.068 52.6094 169.246 51.9272 169.6 51.3364C169.955 50.7349 170.427 50.2354 171.018 49.8379C171.609 49.4297 172.28 49.1235 173.032 48.9194C173.795 48.7153 174.579 48.6133 175.385 48.6133C176.813 48.6133 178.092 48.8604 179.22 49.3545V52.0293C178.006 51.2344 176.609 50.8369 175.03 50.8369C174.536 50.8369 174.09 50.896 173.693 51.0142C173.295 51.1216 172.952 51.2773 172.662 51.4814C172.382 51.6855 172.162 51.9326 172.001 52.2227C171.851 52.502 171.775 52.8135 171.775 53.1572C171.775 53.5869 171.851 53.9468 172.001 54.2368C172.162 54.5269 172.393 54.7847 172.694 55.0103C172.995 55.2358 173.36 55.4399 173.79 55.6226C174.219 55.8052 174.708 56.0039 175.256 56.2188C175.986 56.498 176.642 56.7881 177.222 57.0889C177.802 57.3789 178.296 57.7119 178.704 58.0879C179.112 58.4531 179.424 58.8774 179.639 59.3608C179.864 59.8442 179.977 60.4189 179.977 61.085C179.977 61.9014 179.794 62.6104 179.429 63.2119C179.075 63.8135 178.597 64.313 177.995 64.7104C177.394 65.1079 176.701 65.4033 175.917 65.5967C175.132 65.79 174.311 65.8867 173.451 65.8867C171.754 65.8867 170.282 65.5591 169.036 64.9038ZM186.761 63.1152H186.696V73.0894H184.054V49H186.696V51.9004H186.761C188.061 49.709 189.962 48.6133 192.465 48.6133C194.592 48.6133 196.251 49.3545 197.444 50.8369C198.636 52.3086 199.232 54.2852 199.232 56.7666C199.232 59.5273 198.561 61.7402 197.218 63.4053C195.875 65.0596 194.039 65.8867 191.708 65.8867C189.57 65.8867 187.921 64.9629 186.761 63.1152ZM186.696 56.4604V58.7646C186.696 60.1289 187.137 61.2891 188.018 62.2451C188.909 63.1904 190.037 63.6631 191.401 63.6631C193.002 63.6631 194.253 63.0508 195.156 61.8262C196.069 60.6016 196.525 58.8989 196.525 56.7183C196.525 54.8813 196.101 53.4419 195.252 52.3999C194.404 51.3579 193.254 50.8369 191.804 50.8369C190.268 50.8369 189.033 51.374 188.098 52.4482C187.164 53.5117 186.696 54.8491 186.696 56.4604ZM216.715 57.9106H205.065C205.108 59.7476 205.603 61.1655 206.548 62.1646C207.493 63.1636 208.793 63.6631 210.447 63.6631C212.306 63.6631 214.014 63.0508 215.571 61.8262V64.3076C214.121 65.3604 212.204 65.8867 209.819 65.8867C207.488 65.8867 205.656 65.1401 204.324 63.647C202.992 62.1431 202.326 60.0322 202.326 57.3145C202.326 54.7471 203.051 52.6577 204.501 51.0464C205.962 49.4243 207.772 48.6133 209.932 48.6133C212.091 48.6133 213.761 49.3115 214.943 50.708C216.125 52.1045 216.715 54.0435 216.715 56.5249V57.9106ZM214.008 55.6709C213.998 54.1455 213.627 52.9585 212.896 52.1099C212.177 51.2612 211.172 50.8369 209.883 50.8369C208.637 50.8369 207.579 51.2827 206.709 52.1743C205.839 53.0659 205.302 54.2314 205.098 55.6709H214.008ZM233.989 57.9106H222.339C222.382 59.7476 222.876 61.1655 223.821 62.1646C224.767 63.1636 226.066 63.6631 227.721 63.6631C229.579 63.6631 231.287 63.0508 232.845 61.8262V64.3076C231.395 65.3604 229.477 65.8867 227.092 65.8867C224.761 65.8867 222.93 65.1401 221.598 63.647C220.266 62.1431 219.6 60.0322 219.6 57.3145C219.6 54.7471 220.325 52.6577 221.775 51.0464C223.236 49.4243 225.046 48.6133 227.205 48.6133C229.364 48.6133 231.035 49.3115 232.216 50.708C233.398 52.1045 233.989 54.0435 233.989 56.5249V57.9106ZM231.282 55.6709C231.271 54.1455 230.9 52.9585 230.17 52.1099C229.45 51.2612 228.446 50.8369 227.157 50.8369C225.911 50.8369 224.853 51.2827 223.982 52.1743C223.112 53.0659 222.575 54.2314 222.371 55.6709H231.282ZM252.084 65.5H249.441V62.6963H249.377C248.152 64.8232 246.262 65.8867 243.705 65.8867C241.632 65.8867 239.972 65.1509 238.726 63.6792C237.491 62.1968 236.873 60.1826 236.873 57.6367C236.873 54.9082 237.561 52.7222 238.936 51.0786C240.311 49.4351 242.142 48.6133 244.43 48.6133C246.697 48.6133 248.346 49.5049 249.377 51.2881H249.441V41.0723H252.084V65.5ZM249.441 58.0396V55.6064C249.441 54.2744 249.001 53.1465 248.12 52.2227C247.239 51.2988 246.122 50.8369 244.769 50.8369C243.157 50.8369 241.89 51.4277 240.966 52.6094C240.042 53.791 239.58 55.4238 239.58 57.5078C239.58 59.4092 240.021 60.9131 240.901 62.0195C241.793 63.1152 242.985 63.6631 244.479 63.6631C245.95 63.6631 247.143 63.1313 248.056 62.0679C248.979 61.0044 249.441 59.6616 249.441 58.0396Z" fill="black"/>
<path d="M34.1305 67.6806C36.4372 65.3739 39.6428 64.8396 41.2905 66.4872C42.9381 68.1349 42.4039 71.3405 40.0971 73.6472C37.7904 75.954 23.9871 83.7906 23.9871 83.7906C23.9871 83.7906 31.8238 69.9873 34.1305 67.6806Z" fill="#FFC60F"/>
<circle cx="40.0974" cy="37.2509" r="3.79717" transform="rotate(45 40.0974 37.2509)" fill="#F17F00"/>
<circle cx="55.6108" cy="52.764" r="3.79717" transform="rotate(45 55.6108 52.764)" fill="#F17F00"/>
<circle cx="78.881" cy="29.494" r="3.79717" transform="rotate(45 78.881 29.494)" fill="#F17F00"/>
<circle cx="38.3074" cy="56.9408" r="3.79717" transform="rotate(45 38.3074 56.9408)" fill="#F17F00"/>
<circle cx="70.5278" cy="67.681" r="3.79717" transform="rotate(45 70.5278 67.681)" fill="#F17F00"/>
<circle cx="50.8379" cy="69.4711" r="3.79717" transform="rotate(45 50.8379 69.4711)" fill="#F17F00"/>
<line x1="39.947" y1="37.4136" x2="78.8092" y2="29.4793" stroke="#F17F00" stroke-width="1.5"/>
<line x1="70.3643" y1="68.1263" x2="78.8823" y2="29.3333" stroke="#F17F00" stroke-width="1.5"/>
<line x1="40.4924" y1="36.7975" x2="38.4654" y2="57.0154" stroke="#F17F00" stroke-width="1.5"/>
<line x1="38.1289" y1="56.8053" x2="56.0291" y2="52.4134" stroke="#F17F00" stroke-width="1.5"/>
<line x1="56.148" y1="52.3093" x2="51.1777" y2="69.9078" stroke="#F17F00" stroke-width="1.5"/>
<line x1="50.7678" y1="69.1781" x2="70.8194" y2="67.3004" stroke="#F17F00" stroke-width="1.5"/>
<line x1="50.4041" y1="69.6991" x2="39.9762" y2="37.0126" stroke="#F17F00" stroke-width="1.5"/>
<line x1="70.6683" y1="67.6962" x2="38.0867" y2="57.6573" stroke="#F17F00" stroke-width="1.5"/>
<line x1="55.3219" y1="52.5941" x2="78.8712" y2="29.3586" stroke="#F17F00" stroke-width="1.5"/>
</g>
<defs>
<clipPath id="clip0">
<rect width="287" height="107" fill="white"/>
</clipPath>
</defs>
</svg>
