<svg width="287" height="107" viewBox="0 0 287 107" fill="none" xmlns="http://www.w3.org/2000/svg">
<path d="M102.006 63.3759V40.2694H108.387C116.53 40.2694 120.601 44.0238 120.601 51.5326C120.601 55.099 119.468 57.9672 117.201 60.1371C114.945 62.2963 111.921 63.3759 108.129 63.3759H102.006ZM104.713 42.7186V60.9266H108.161C111.191 60.9266 113.549 60.1156 115.235 58.4935C116.922 56.8715 117.765 54.5726 117.765 51.597C117.765 45.6781 114.617 42.7186 108.323 42.7186H104.713ZM138.052 55.7865H126.402C126.445 57.6234 126.939 59.0414 127.884 60.0404C128.829 61.0394 130.129 61.5389 131.783 61.5389C133.642 61.5389 135.35 60.9266 136.907 59.702V62.1835C135.457 63.2362 133.54 63.7626 131.155 63.7626C128.824 63.7626 126.992 63.016 125.66 61.5228C124.328 60.0189 123.662 57.9081 123.662 55.1903C123.662 52.6229 124.387 50.5336 125.838 48.9222C127.299 47.3002 129.109 46.4891 131.268 46.4891C133.427 46.4891 135.097 47.1874 136.279 48.5839C137.461 49.9803 138.052 51.9193 138.052 54.4008V55.7865ZM135.344 53.5468C135.334 52.0214 134.963 50.8344 134.233 49.9857C133.513 49.1371 132.509 48.7128 131.219 48.7128C129.973 48.7128 128.915 49.1586 128.045 50.0502C127.175 50.9418 126.638 52.1073 126.434 53.5468H135.344ZM155.325 55.7865H143.675C143.718 57.6234 144.212 59.0414 145.157 60.0404C146.103 61.0394 147.403 61.5389 149.057 61.5389C150.915 61.5389 152.623 60.9266 154.181 59.702V62.1835C152.731 63.2362 150.813 63.7626 148.428 63.7626C146.097 63.7626 144.266 63.016 142.934 61.5228C141.602 60.0189 140.936 57.9081 140.936 55.1903C140.936 52.6229 141.661 50.5336 143.111 48.9222C144.572 47.3002 146.382 46.4891 148.541 46.4891C150.7 46.4891 152.371 47.1874 153.552 48.5839C154.734 49.9803 155.325 51.9193 155.325 54.4008V55.7865ZM152.618 53.5468C152.607 52.0214 152.237 50.8344 151.506 49.9857C150.786 49.1371 149.782 48.7128 148.493 48.7128C147.247 48.7128 146.189 49.1586 145.319 50.0502C144.448 50.9418 143.911 52.1073 143.707 53.5468H152.618ZM162.044 60.9911H161.98V70.9652H159.337V46.8759H161.98V49.7762H162.044C163.344 47.5848 165.245 46.4891 167.748 46.4891C169.875 46.4891 171.535 47.2303 172.727 48.7128C173.92 50.1844 174.516 52.161 174.516 54.6425C174.516 57.4032 173.844 59.6161 172.502 61.2811C171.159 62.9354 169.322 63.7626 166.991 63.7626C164.853 63.7626 163.204 62.8387 162.044 60.9911ZM161.98 54.3363V56.6405C161.98 58.0048 162.42 59.1649 163.301 60.121C164.193 61.0663 165.321 61.5389 166.685 61.5389C168.285 61.5389 169.537 60.9266 170.439 59.702C171.352 58.4774 171.809 56.7748 171.809 54.5941C171.809 52.7572 171.385 51.3177 170.536 50.2758C169.687 49.2338 168.538 48.7128 167.088 48.7128C165.552 48.7128 164.316 49.2499 163.382 50.3241C162.447 51.3876 161.98 52.725 161.98 54.3363ZM178.012 62.4413V59.2509C178.378 59.5731 178.813 59.8632 179.318 60.121C179.833 60.3788 180.37 60.599 180.929 60.7816C181.498 60.9535 182.068 61.0878 182.637 61.1844C183.206 61.2811 183.733 61.3295 184.216 61.3295C185.881 61.3295 187.122 61.0233 187.938 60.411C188.765 59.788 189.179 58.8964 189.179 57.7362C189.179 57.1132 189.039 56.5707 188.76 56.1088C188.491 55.6469 188.115 55.2279 187.632 54.8519C187.149 54.4652 186.574 54.1 185.908 53.7562C185.253 53.4017 184.544 53.0311 183.781 52.6444C182.975 52.2362 182.223 51.8226 181.525 51.4037C180.827 50.9847 180.22 50.5228 179.704 50.0179C179.189 49.5131 178.781 48.9437 178.48 48.3099C178.19 47.6654 178.045 46.9135 178.045 46.0541C178.045 45.0013 178.276 44.0883 178.738 43.3148C179.199 42.5306 179.806 41.8861 180.558 41.3812C181.31 40.8763 182.164 40.5004 183.12 40.2533C184.087 40.0062 185.07 39.8827 186.069 39.8827C188.346 39.8827 190.006 40.1566 191.048 40.7045V43.7499C189.684 42.8046 187.933 42.3319 185.795 42.3319C185.204 42.3319 184.614 42.3964 184.023 42.5253C183.432 42.6434 182.906 42.8422 182.444 43.1215C181.982 43.4008 181.606 43.7606 181.316 44.201C181.026 44.6415 180.881 45.1786 180.881 45.8124C180.881 46.4032 180.988 46.9135 181.203 47.3431C181.428 47.7728 181.756 48.1649 182.186 48.5194C182.615 48.8739 183.136 49.2177 183.749 49.5507C184.372 49.8837 185.086 50.2489 185.892 50.6464C186.719 51.0546 187.503 51.4843 188.244 51.9354C188.986 52.3866 189.635 52.8861 190.194 53.434C190.753 53.9818 191.193 54.5887 191.515 55.2548C191.848 55.9208 192.015 56.6835 192.015 57.5428C192.015 58.6815 191.789 59.6483 191.338 60.4432C190.898 61.2274 190.296 61.8666 189.533 62.3607C188.781 62.8549 187.911 63.2094 186.923 63.4242C185.935 63.6498 184.893 63.7626 183.797 63.7626C183.432 63.7626 182.981 63.7303 182.444 63.6659C181.906 63.6122 181.359 63.5262 180.8 63.4081C180.241 63.3007 179.71 63.1664 179.205 63.0052C178.711 62.8334 178.313 62.6454 178.012 62.4413ZM198.976 60.9911H198.911V70.9652H196.269V46.8759H198.911V49.7762H198.976C200.276 47.5848 202.177 46.4891 204.68 46.4891C206.807 46.4891 208.467 47.2303 209.659 48.7128C210.851 50.1844 211.448 52.161 211.448 54.6425C211.448 57.4032 210.776 59.6161 209.433 61.2811C208.091 62.9354 206.254 63.7626 203.923 63.7626C201.785 63.7626 200.136 62.8387 198.976 60.9911ZM198.911 54.3363V56.6405C198.911 58.0048 199.352 59.1649 200.233 60.121C201.124 61.0663 202.252 61.5389 203.616 61.5389C205.217 61.5389 206.469 60.9266 207.371 59.702C208.284 58.4774 208.74 56.7748 208.74 54.5941C208.74 52.7572 208.316 51.3177 207.468 50.2758C206.619 49.2338 205.469 48.7128 204.019 48.7128C202.483 48.7128 201.248 49.2499 200.313 50.3241C199.379 51.3876 198.911 52.725 198.911 54.3363ZM228.93 55.7865H217.281C217.323 57.6234 217.818 59.0414 218.763 60.0404C219.708 61.0394 221.008 61.5389 222.662 61.5389C224.521 61.5389 226.229 60.9266 227.786 59.702V62.1835C226.336 63.2362 224.419 63.7626 222.034 63.7626C219.703 63.7626 217.871 63.016 216.539 61.5228C215.207 60.0189 214.541 57.9081 214.541 55.1903C214.541 52.6229 215.266 50.5336 216.717 48.9222C218.177 47.3002 219.988 46.4891 222.147 46.4891C224.306 46.4891 225.976 47.1874 227.158 48.5839C228.34 49.9803 228.93 51.9193 228.93 54.4008V55.7865ZM226.223 53.5468C226.213 52.0214 225.842 50.8344 225.112 49.9857C224.392 49.1371 223.387 48.7128 222.098 48.7128C220.852 48.7128 219.794 49.1586 218.924 50.0502C218.054 50.9418 217.517 52.1073 217.313 53.5468H226.223ZM246.204 55.7865H234.554C234.597 57.6234 235.091 59.0414 236.036 60.0404C236.982 61.0394 238.281 61.5389 239.936 61.5389C241.794 61.5389 243.502 60.9266 245.06 59.702V62.1835C243.61 63.2362 241.692 63.7626 239.307 63.7626C236.976 63.7626 235.145 63.016 233.813 61.5228C232.481 60.0189 231.815 57.9081 231.815 55.1903C231.815 52.6229 232.54 50.5336 233.99 48.9222C235.451 47.3002 237.261 46.4891 239.42 46.4891C241.579 46.4891 243.25 47.1874 244.431 48.5839C245.613 49.9803 246.204 51.9193 246.204 54.4008V55.7865ZM243.497 53.5468C243.486 52.0214 243.115 50.8344 242.385 49.9857C241.665 49.1371 240.661 48.7128 239.372 48.7128C238.126 48.7128 237.068 49.1586 236.198 50.0502C235.327 50.9418 234.79 52.1073 234.586 53.5468H243.497ZM264.299 63.3759H261.656V60.5721H261.592C260.367 62.6991 258.477 63.7626 255.92 63.7626C253.847 63.7626 252.187 63.0267 250.941 61.5551C249.706 60.0726 249.088 58.0585 249.088 55.5126C249.088 52.7841 249.776 50.598 251.151 48.9545C252.526 47.3109 254.357 46.4891 256.645 46.4891C258.912 46.4891 260.561 47.3807 261.592 49.1639H261.656V38.9481H264.299V63.3759ZM261.656 55.9154V53.4823C261.656 52.1503 261.216 51.0223 260.335 50.0985C259.454 49.1747 258.337 48.7128 256.984 48.7128C255.372 48.7128 254.105 49.3036 253.181 50.4852C252.257 51.6669 251.795 53.2997 251.795 55.3837C251.795 57.285 252.236 58.7889 253.116 59.8954C254.008 60.9911 255.2 61.5389 256.694 61.5389C258.165 61.5389 259.358 61.0072 260.271 59.9437C261.195 58.8802 261.656 57.5375 261.656 55.9154Z" fill="black"/>
<path d="M39.1268 65.5563C41.4335 63.2496 44.6392 62.7153 46.2868 64.363C47.9345 66.0106 47.4002 69.2163 45.0935 71.523C42.7868 73.8297 28.9835 81.6663 28.9835 81.6663C28.9835 81.6663 36.8201 67.863 39.1268 65.5563Z" fill="#FFC60F"/>
<circle cx="45.0938" cy="35.1266" r="3.79717" transform="rotate(45 45.0938 35.1266)" fill="#F17F00"/>
<circle cx="60.6072" cy="50.64" r="3.79717" transform="rotate(45 60.6072 50.64)" fill="#F17F00"/>
<circle cx="83.8772" cy="27.37" r="3.79717" transform="rotate(45 83.8772 27.37)" fill="#F17F00"/>
<circle cx="43.3037" cy="54.8165" r="3.79717" transform="rotate(45 43.3037 54.8165)" fill="#F17F00"/>
<circle cx="75.5242" cy="65.557" r="3.79717" transform="rotate(45 75.5242 65.557)" fill="#F17F00"/>
<circle cx="55.8342" cy="67.3469" r="3.79717" transform="rotate(45 55.8342 67.3469)" fill="#F17F00"/>
<line x1="44.9435" y1="35.2895" x2="83.8057" y2="27.3551" stroke="#F17F00" stroke-width="1.5"/>
<line x1="75.3605" y1="66.0021" x2="83.8786" y2="27.2091" stroke="#F17F00" stroke-width="1.5"/>
<line x1="45.4887" y1="34.6734" x2="43.4618" y2="54.8914" stroke="#F17F00" stroke-width="1.5"/>
<line x1="43.1252" y1="54.6813" x2="61.0254" y2="50.2893" stroke="#F17F00" stroke-width="1.5"/>
<line x1="61.1444" y1="50.1853" x2="56.1741" y2="67.7838" stroke="#F17F00" stroke-width="1.5"/>
<line x1="55.7643" y1="67.0542" x2="75.8159" y2="65.1765" stroke="#F17F00" stroke-width="1.5"/>
<line x1="55.4005" y1="67.5749" x2="44.9725" y2="34.8883" stroke="#F17F00" stroke-width="1.5"/>
<line x1="75.6647" y1="65.5722" x2="43.083" y2="55.5333" stroke="#F17F00" stroke-width="1.5"/>
<line x1="60.3182" y1="50.4698" x2="83.8676" y2="27.2344" stroke="#F17F00" stroke-width="1.5"/>
</svg>
