<svg width="287" height="87" viewBox="0 0 287 87" fill="none" xmlns="http://www.w3.org/2000/svg">
<path d="M101.619 54.3759V31.2694H109.805C118.012 31.2694 122.115 35.0238 122.115 42.5326C122.115 46.1312 120.993 49.0048 118.748 51.1532C116.513 53.3016 113.532 54.3759 109.805 54.3759H101.619ZM106.824 35.5072V50.1542H109.402C111.658 50.1542 113.425 49.4774 114.703 48.1239C115.992 46.7704 116.637 44.9281 116.637 42.597C116.637 40.3949 115.998 38.6654 114.719 37.4086C113.452 36.141 111.669 35.5072 109.37 35.5072H106.824ZM140.275 47.576H129.511C129.683 49.9716 131.193 51.1693 134.039 51.1693C135.855 51.1693 137.45 50.7396 138.825 49.8802V53.5541C137.3 54.3705 135.318 54.7787 132.879 54.7787C130.215 54.7787 128.147 54.0428 126.676 52.5712C125.204 51.0887 124.468 49.0262 124.468 46.3837C124.468 43.6444 125.263 41.4745 126.853 39.8739C128.443 38.2733 130.398 37.473 132.718 37.473C135.124 37.473 136.983 38.1874 138.293 39.6161C139.615 41.0448 140.275 42.9838 140.275 45.433V47.576ZM135.554 44.4501C135.554 42.0868 134.598 40.9052 132.686 40.9052C131.869 40.9052 131.16 41.2435 130.559 41.9203C129.968 42.597 129.608 43.4403 129.479 44.4501H135.554ZM158.129 47.576H147.365C147.537 49.9716 149.046 51.1693 151.893 51.1693C153.708 51.1693 155.303 50.7396 156.678 49.8802V53.5541C155.153 54.3705 153.171 54.7787 150.733 54.7787C148.069 54.7787 146.001 54.0428 144.529 52.5712C143.057 51.0887 142.322 49.0262 142.322 46.3837C142.322 43.6444 143.116 41.4745 144.706 39.8739C146.296 38.2733 148.251 37.473 150.572 37.473C152.978 37.473 154.836 38.1874 156.147 39.6161C157.468 41.0448 158.129 42.9838 158.129 45.433V47.576ZM153.407 44.4501C153.407 42.0868 152.451 40.9052 150.539 40.9052C149.723 40.9052 149.014 41.2435 148.412 41.9203C147.822 42.597 147.462 43.4403 147.333 44.4501H153.407ZM166.314 52.4584H166.25V61.9652H161.158V37.8759H166.25V40.3573H166.314C167.571 38.4344 169.338 37.473 171.615 37.473C173.753 37.473 175.402 38.2089 176.562 39.6805C177.733 41.1415 178.319 43.1342 178.319 45.6586C178.319 48.4086 177.636 50.6161 176.272 52.2811C174.919 53.9462 173.114 54.7787 170.858 54.7787C168.871 54.7787 167.356 54.0052 166.314 52.4584ZM166.169 45.6908V47.0121C166.169 48.1508 166.47 49.08 167.072 49.7997C167.673 50.5194 168.463 50.8793 169.44 50.8793C170.6 50.8793 171.497 50.4335 172.131 49.5419C172.776 48.6395 173.098 47.3666 173.098 45.723C173.098 42.8226 171.97 41.3724 169.714 41.3724C168.672 41.3724 167.818 41.7699 167.152 42.5648C166.497 43.349 166.169 44.391 166.169 45.6908ZM181.058 53.4896V48.3334C181.992 49.1176 183.008 49.7084 184.103 50.1058C185.199 50.4926 186.305 50.6859 187.423 50.6859C188.078 50.6859 188.647 50.6268 189.131 50.5087C189.625 50.3905 190.033 50.2294 190.355 50.0253C190.688 49.8104 190.935 49.5634 191.096 49.2841C191.258 48.994 191.338 48.6825 191.338 48.3495C191.338 47.8983 191.209 47.4955 190.951 47.141C190.694 46.7865 190.339 46.4589 189.888 46.1581C189.448 45.8573 188.921 45.5673 188.309 45.288C187.697 45.0087 187.036 44.724 186.327 44.434C184.522 43.682 183.174 42.7635 182.282 41.6786C181.402 40.5936 180.961 39.2831 180.961 37.7469C180.961 36.5438 181.203 35.5126 181.686 34.6532C182.17 33.7831 182.825 33.0687 183.652 32.5101C184.49 31.9515 185.457 31.5433 186.552 31.2855C187.648 31.017 188.808 30.8827 190.033 30.8827C191.236 30.8827 192.3 30.9579 193.223 31.1083C194.158 31.2479 195.017 31.4681 195.802 31.7689V36.5868C195.415 36.3182 194.99 36.0819 194.529 35.8778C194.077 35.6737 193.61 35.5072 193.127 35.3783C192.643 35.2386 192.16 35.1366 191.677 35.0721C191.204 35.0077 190.753 34.9755 190.323 34.9755C189.732 34.9755 189.195 35.0345 188.712 35.1527C188.228 35.2601 187.82 35.4159 187.487 35.62C187.154 35.8241 186.896 36.0712 186.714 36.3612C186.531 36.6405 186.44 36.9574 186.44 37.3119C186.44 37.6986 186.542 38.0477 186.746 38.3593C186.95 38.66 187.24 38.9501 187.616 39.2294C187.992 39.4979 188.448 39.7665 188.986 40.035C189.523 40.2928 190.13 40.5614 190.806 40.8407C191.73 41.2274 192.557 41.641 193.288 42.0814C194.029 42.5111 194.663 42.9999 195.189 43.5477C195.716 44.0956 196.118 44.724 196.398 45.433C196.677 46.1312 196.817 46.9476 196.817 47.8822C196.817 49.1713 196.57 50.2562 196.075 51.1371C195.592 52.0072 194.931 52.7162 194.094 53.264C193.256 53.8011 192.278 54.1879 191.161 54.4242C190.054 54.6605 188.884 54.7787 187.648 54.7787C186.381 54.7787 185.172 54.6713 184.023 54.4564C182.884 54.2416 181.896 53.9193 181.058 53.4896ZM205.276 52.4584H205.212V61.9652H200.12V37.8759H205.212V40.3573H205.276C206.533 38.4344 208.3 37.473 210.577 37.473C212.715 37.473 214.364 38.2089 215.524 39.6805C216.695 41.1415 217.281 43.1342 217.281 45.6586C217.281 48.4086 216.598 50.6161 215.234 52.2811C213.881 53.9462 212.076 54.7787 209.82 54.7787C207.833 54.7787 206.318 54.0052 205.276 52.4584ZM205.131 45.6908V47.0121C205.131 48.1508 205.432 49.08 206.033 49.7997C206.635 50.5194 207.425 50.8793 208.402 50.8793C209.562 50.8793 210.459 50.4335 211.093 49.5419C211.738 48.6395 212.06 47.3666 212.06 45.723C212.06 42.8226 210.932 41.3724 208.676 41.3724C207.634 41.3724 206.78 41.7699 206.114 42.5648C205.459 43.349 205.131 44.391 205.131 45.6908ZM235.408 47.576H224.644C224.816 49.9716 226.325 51.1693 229.172 51.1693C230.988 51.1693 232.583 50.7396 233.958 49.8802V53.5541C232.432 54.3705 230.45 54.7787 228.012 54.7787C225.348 54.7787 223.28 54.0428 221.808 52.5712C220.337 51.0887 219.601 49.0262 219.601 46.3837C219.601 43.6444 220.396 41.4745 221.986 39.8739C223.575 38.2733 225.531 37.473 227.851 37.473C230.257 37.473 232.115 38.1874 233.426 39.6161C234.747 41.0448 235.408 42.9838 235.408 45.433V47.576ZM230.687 44.4501C230.687 42.0868 229.731 40.9052 227.819 40.9052C227.002 40.9052 226.293 41.2435 225.692 41.9203C225.101 42.597 224.741 43.4403 224.612 44.4501H230.687ZM253.261 47.576H242.498C242.67 49.9716 244.179 51.1693 247.026 51.1693C248.841 51.1693 250.436 50.7396 251.811 49.8802V53.5541C250.286 54.3705 248.304 54.7787 245.865 54.7787C243.201 54.7787 241.134 54.0428 239.662 52.5712C238.19 51.0887 237.454 49.0262 237.454 46.3837C237.454 43.6444 238.249 41.4745 239.839 39.8739C241.429 38.2733 243.384 37.473 245.704 37.473C248.111 37.473 249.969 38.1874 251.28 39.6161C252.601 41.0448 253.261 42.9838 253.261 45.433V47.576ZM248.54 44.4501C248.54 42.0868 247.584 40.9052 245.672 40.9052C244.856 40.9052 244.147 41.2435 243.545 41.9203C242.954 42.597 242.594 43.4403 242.466 44.4501H248.54ZM272.436 54.3759H267.344V52.1039H267.28C266.12 53.8871 264.417 54.7787 262.172 54.7787C260.11 54.7787 258.45 54.0536 257.193 52.6034C255.936 51.1425 255.308 49.1068 255.308 46.4965C255.308 43.7679 256.001 41.5819 257.386 39.9384C258.772 38.2948 260.588 37.473 262.833 37.473C264.96 37.473 266.442 38.2357 267.28 39.7611H267.344V29.9481H272.436V54.3759ZM267.441 46.3514V45.1107C267.441 44.0365 267.13 43.1449 266.507 42.4359C265.884 41.7269 265.073 41.3724 264.073 41.3724C262.946 41.3724 262.065 41.8182 261.431 42.7098C260.797 43.5907 260.48 44.8046 260.48 46.3514C260.48 47.8016 260.786 48.9188 261.399 49.703C262.011 50.4872 262.86 50.8793 263.945 50.8793C264.976 50.8793 265.814 50.4657 266.458 49.6385C267.114 48.8114 267.441 47.7157 267.441 46.3514Z" fill="black"/>
<path d="M39.1268 56.5563C41.4335 54.2496 44.6392 53.7153 46.2868 55.363C47.9345 57.0106 47.4002 60.2163 45.0935 62.523C42.7868 64.8297 28.9835 72.6663 28.9835 72.6663C28.9835 72.6663 36.8201 58.863 39.1268 56.5563Z" fill="#FFC60F"/>
<circle cx="45.0938" cy="26.1266" r="3.79717" transform="rotate(45 45.0938 26.1266)" fill="#F17F00"/>
<circle cx="60.6072" cy="41.64" r="3.79717" transform="rotate(45 60.6072 41.64)" fill="#F17F00"/>
<circle cx="83.8772" cy="18.37" r="3.79717" transform="rotate(45 83.8772 18.37)" fill="#F17F00"/>
<circle cx="43.3037" cy="45.8165" r="3.79717" transform="rotate(45 43.3037 45.8165)" fill="#F17F00"/>
<circle cx="75.5242" cy="56.557" r="3.79717" transform="rotate(45 75.5242 56.557)" fill="#F17F00"/>
<circle cx="55.8342" cy="58.3469" r="3.79717" transform="rotate(45 55.8342 58.3469)" fill="#F17F00"/>
<line x1="44.9435" y1="26.2895" x2="83.8057" y2="18.3551" stroke="#F17F00" stroke-width="1.5"/>
<line x1="75.3605" y1="57.0021" x2="83.8786" y2="18.2091" stroke="#F17F00" stroke-width="1.5"/>
<line x1="45.4887" y1="25.6734" x2="43.4618" y2="45.8914" stroke="#F17F00" stroke-width="1.5"/>
<line x1="43.1252" y1="45.6813" x2="61.0254" y2="41.2893" stroke="#F17F00" stroke-width="1.5"/>
<line x1="61.1444" y1="41.1853" x2="56.1741" y2="58.7838" stroke="#F17F00" stroke-width="1.5"/>
<line x1="55.7643" y1="58.0542" x2="75.8159" y2="56.1765" stroke="#F17F00" stroke-width="1.5"/>
<line x1="55.4005" y1="58.5749" x2="44.9725" y2="25.8883" stroke="#F17F00" stroke-width="1.5"/>
<line x1="75.6647" y1="56.5722" x2="43.083" y2="46.5333" stroke="#F17F00" stroke-width="1.5"/>
<line x1="60.3182" y1="41.4698" x2="83.8676" y2="18.2344" stroke="#F17F00" stroke-width="1.5"/>
</svg>
