<svg width="732" height="198" viewBox="0 0 732 198" fill="none" xmlns="http://www.w3.org/2000/svg">
<path d="M80.7967 1.017L3.69127 46.7244C2.56854 47.3909 1.63645 48.3484 0.988564 49.5007C0.340673 50.653 -0.000172384 51.9595 6.54048e-08 53.2894V144.717C0.000431188 146.046 0.341535 147.353 0.989426 148.504C1.63723 149.657 2.56897 150.614 3.69127 151.282L80.7967 196.983C81.9228 197.649 83.1997 198 84.5 198C85.8003 198 87.0772 197.649 88.2033 196.983L165.309 151.282C166.431 150.614 167.363 149.657 168.011 148.504C168.659 147.353 169 146.046 169 144.717V53.2894C169 51.9595 168.659 50.653 168.011 49.5007C167.363 48.3484 166.431 47.3909 165.309 46.7244L88.2033 1.017C87.0772 0.350663 85.8003 0 84.5 0C83.1997 0 81.9228 0.350663 80.7967 1.017ZM68.229 153.423L77.3848 113.44C77.4503 113.151 77.4417 112.849 77.3598 112.565C77.2778 112.28 77.1252 112.022 76.9174 111.816L54.7265 89.6312C54.5627 89.4704 54.4322 89.2768 54.3432 89.0629C54.2541 88.849 54.2083 88.6191 54.2083 88.3869C54.2083 88.1543 54.2541 87.9241 54.3432 87.7102C54.4322 87.4963 54.5627 87.3032 54.7265 87.1423L98.1183 42.9408C98.3752 42.6755 98.7107 42.5039 99.0728 42.4519C99.4349 42.3999 99.8031 42.4706 100.122 42.6531C100.441 42.8355 100.693 43.1199 100.84 43.4629C100.987 43.8057 101.02 44.1886 100.935 44.5527L91.767 84.6282C91.6989 84.9176 91.7049 85.2203 91.786 85.5064C91.867 85.7924 92.0196 86.0516 92.2292 86.2583L114.291 108.318C114.45 108.479 114.576 108.671 114.662 108.882C114.748 109.093 114.792 109.319 114.792 109.548C114.792 109.776 114.748 110.002 114.662 110.214C114.576 110.425 114.45 110.616 114.291 110.777L71.0521 155.015C70.794 155.275 70.461 155.443 70.1024 155.495C69.7438 155.545 69.3788 155.475 69.0617 155.297C68.7446 155.118 68.4923 154.839 68.3422 154.501C68.1922 154.163 68.1525 153.785 68.229 153.423Z" fill="url(#paint0_linear_5_35)"/>
<path d="M251.524 141H206.939V60.4775H220.303V129.713H251.524V141ZM268.313 71.4272C266.18 71.4272 264.345 70.7347 262.811 69.3496C261.313 67.9645 260.564 66.2051 260.564 64.0713C260.564 61.9375 261.313 60.1593 262.811 58.7368C264.345 57.3143 266.18 56.603 268.313 56.603C270.522 56.603 272.394 57.3143 273.929 58.7368C275.464 60.1593 276.231 61.9375 276.231 64.0713C276.231 66.0928 275.464 67.8335 273.929 69.2935C272.394 70.716 270.522 71.4272 268.313 71.4272ZM274.771 141H261.744V83.5H274.771V141ZM344.175 136.396C344.175 157.509 333.562 168.065 312.337 168.065C304.85 168.065 298.318 166.811 292.74 164.303V152.399C299.029 155.993 305 157.79 310.652 157.79C324.316 157.79 331.148 151.07 331.148 137.631V131.342H330.923C326.618 138.679 320.142 142.348 311.495 142.348C304.494 142.348 298.842 139.802 294.537 134.711C290.269 129.582 288.135 122.713 288.135 114.103C288.135 104.333 290.438 96.5648 295.042 90.7998C299.646 85.0348 305.973 82.1523 314.021 82.1523C321.621 82.1523 327.255 85.2594 330.923 91.4736H331.148V83.5H344.175V136.396ZM331.26 114.665V107.196C331.26 103.153 329.913 99.7093 327.217 96.8643C324.559 93.9818 321.228 92.5405 317.222 92.5405C312.281 92.5405 308.406 94.3748 305.599 98.0435C302.828 101.675 301.443 106.766 301.443 113.317C301.443 118.97 302.772 123.499 305.43 126.906C308.125 130.275 311.682 131.959 316.099 131.959C320.591 131.959 324.241 130.35 327.049 127.13C329.856 123.874 331.26 119.718 331.26 114.665ZM412.232 141H399.205V109.555C399.205 98.1745 395.405 92.4844 387.806 92.4844C383.987 92.4844 380.768 94.1315 378.147 97.4258C375.527 100.72 374.217 104.931 374.217 110.06V141H361.133V55.873H374.217V93.0459H374.441C378.784 85.7835 384.998 82.1523 393.084 82.1523C405.849 82.1523 412.232 89.9575 412.232 105.568V141ZM458.389 140.382C455.844 141.655 452.493 142.292 448.338 142.292C437.182 142.292 431.604 136.938 431.604 126.232V93.7197H422.002V83.5H431.604V70.1919L444.632 66.4858V83.5H458.389V93.7197H444.632V122.47C444.632 125.876 445.25 128.31 446.485 129.77C447.72 131.229 449.779 131.959 452.662 131.959C454.87 131.959 456.779 131.323 458.389 130.05V140.382ZM520.831 141H507.803V108.6C507.803 97.8563 504.004 92.4844 496.404 92.4844C492.436 92.4844 489.161 93.9818 486.578 96.9766C483.995 99.9339 482.703 103.677 482.703 108.207V141H469.62V83.5H482.703V93.0459H482.928C487.233 85.7835 493.447 82.1523 501.57 82.1523C507.822 82.1523 512.595 84.1925 515.889 88.2729C519.183 92.3159 520.831 98.1745 520.831 105.849V141ZM543.348 71.4272C541.214 71.4272 539.38 70.7347 537.845 69.3496C536.347 67.9645 535.599 66.2051 535.599 64.0713C535.599 61.9375 536.347 60.1593 537.845 58.7368C539.38 57.3143 541.214 56.603 543.348 56.603C545.556 56.603 547.428 57.3143 548.963 58.7368C550.498 60.1593 551.265 61.9375 551.265 64.0713C551.265 66.0928 550.498 67.8335 548.963 69.2935C547.428 70.716 545.556 71.4272 543.348 71.4272ZM549.805 141H536.778V83.5H549.805V141ZM618.086 141H605.059V108.6C605.059 97.8563 601.259 92.4844 593.66 92.4844C589.692 92.4844 586.417 93.9818 583.833 96.9766C581.25 99.9339 579.959 103.677 579.959 108.207V141H566.875V83.5H579.959V93.0459H580.184C584.489 85.7835 590.703 82.1523 598.826 82.1523C605.078 82.1523 609.851 84.1925 613.145 88.2729C616.439 92.3159 618.086 98.1745 618.086 105.849V141ZM686.368 136.396C686.368 157.509 675.755 168.065 654.529 168.065C647.042 168.065 640.51 166.811 634.932 164.303V152.399C641.221 155.993 647.192 157.79 652.845 157.79C666.508 157.79 673.34 151.07 673.34 137.631V131.342H673.116C668.811 138.679 662.334 142.348 653.687 142.348C646.687 142.348 641.034 139.802 636.729 134.711C632.461 129.582 630.328 122.713 630.328 114.103C630.328 104.333 632.63 96.5648 637.234 90.7998C641.839 85.0348 648.165 82.1523 656.214 82.1523C663.813 82.1523 669.447 85.2594 673.116 91.4736H673.34V83.5H686.368V136.396ZM673.453 114.665V107.196C673.453 103.153 672.105 99.7093 669.41 96.8643C666.752 93.9818 663.42 92.5405 659.415 92.5405C654.473 92.5405 650.599 94.3748 647.791 98.0435C645.021 101.675 643.636 106.766 643.636 113.317C643.636 118.97 644.965 123.499 647.623 126.906C650.318 130.275 653.874 131.959 658.292 131.959C662.784 131.959 666.434 130.35 669.241 127.13C672.049 123.874 673.453 119.718 673.453 114.665Z" fill="white"/>
<defs>
<linearGradient id="paint0_linear_5_35" x1="127.442" y1="25.514" x2="-40.088" y2="307.246" gradientUnits="userSpaceOnUse">
<stop stop-color="#792EE5"/>
<stop offset="1" stop-color="#3EABB3"/>
</linearGradient>
</defs>
</svg>
