<svg width="221" height="38" viewBox="0 0 221 38" fill="none" xmlns="http://www.w3.org/2000/svg">
    <g clip-path="url(#clip0)">
        <path d="M24.0822 31.9977L26.0824 23.4903L21.6462 4.62432C21.3778 3.48392 20.5595 0 17.9712 0V6.0023L23.0374 27.5463L24.0822 31.9977Z" fill="#13294E"/>
        <path d="M48.0339 30.825L47.2726 27.5501L41.8733 4.62432C41.605 3.48392 40.7866 0 38.1964 0V6.0023L43.2626 27.5463L44.2428 31.7069C44.3012 31.9563 44.3097 32.2147 44.2679 32.4674C44.2261 32.72 44.1348 32.962 43.9992 33.1793C43.8636 33.3967 43.6863 33.5852 43.4777 33.734C43.269 33.8828 43.0329 33.9891 42.7831 34.0466C42.636 34.082 42.4852 34.0998 42.3339 34.0998C41.8957 34.0965 41.4712 33.9466 41.1283 33.6741C40.7854 33.4015 40.5438 33.0221 40.4422 32.5964L40.3375 32.1536L39.2641 27.5463L36.141 14.274L34.196 6.0023L32.1958 14.5097L35.2637 27.5463L36.6587 33.4802C36.8336 34.2261 37.154 34.9304 37.6015 35.5526C38.0489 36.1749 38.6147 36.7031 39.2666 37.107C39.9184 37.5109 40.6435 37.7826 41.4005 37.9067C42.1575 38.0307 42.9316 38.0046 43.6785 37.8299C44.4254 37.6552 45.1305 37.3352 45.7536 36.8884C46.3767 36.4415 46.9056 35.8764 47.31 35.2254C47.7144 34.5744 47.9865 33.8503 48.1107 33.0943C48.2349 32.3383 48.2088 31.5652 48.0339 30.8193V30.825Z" fill="#13294E"/>
        <path d="M19.0375 27.5459L14.0036 6.14062L12.0034 14.6461L15.037 27.5459L16.4073 33.3714C16.5539 33.993 16.8622 35.3025 17.5283 36.3688C19.1612 35.5933 19.7949 33.2061 20.0461 32.1493L20.0842 31.9935L19.0375 27.5459Z" fill="#13294E"/>
        <path d="M48.0339 30.825L47.2726 27.5501L41.8733 4.62432C41.605 3.48392 40.7866 0 38.1964 0V6.0023L43.2626 27.5463L44.2428 31.7069C44.3012 31.9563 44.3097 32.2147 44.2679 32.4674C44.2261 32.72 44.1348 32.962 43.9992 33.1793C43.8636 33.3967 43.6863 33.5852 43.4777 33.734C43.269 33.8828 43.0329 33.9891 42.7831 34.0466C42.636 34.082 42.4852 34.0998 42.3339 34.0998C41.8957 34.0965 41.4712 33.9466 41.1283 33.6741C40.7854 33.4015 40.5438 33.0221 40.4422 32.5964L40.3375 32.1536L39.2641 27.5463L36.141 14.274L34.196 6.0023L32.1958 14.5097L35.2637 27.5463L36.6587 33.4802C36.8336 34.2261 37.154 34.9304 37.6015 35.5526C38.0489 36.1749 38.6147 36.7031 39.2666 37.107C39.9184 37.5109 40.6435 37.7826 41.4005 37.9067C42.1575 38.0307 42.9316 38.0046 43.6785 37.8299C44.4254 37.6552 45.1305 37.3352 45.7536 36.8884C46.3767 36.4415 46.9056 35.8764 47.31 35.2254C47.7144 34.5744 47.9865 33.8503 48.1107 33.0943C48.2349 32.3383 48.2088 31.5652 48.0339 30.8193V30.825Z" fill="url(#paint0_linear)"/>
        <path d="M21.6462 4.62432C21.3778 3.48392 20.5595 0 17.9712 0V6.0023L23.0374 27.5463L24.0822 31.9939L26.0824 23.4865L21.6462 4.62432Z" fill="url(#paint1_linear)"/>
        <path d="M14.0036 6.14062L12.0034 14.6461L15.037 27.5459L16.4073 33.3714C16.5539 33.993 16.8622 35.3025 17.5283 36.3688C19.1612 35.5933 19.7949 33.2061 20.0461 32.1493L20.0842 31.9935L19.0375 27.5459L14.0036 6.14062Z" fill="url(#paint2_linear)"/>
        <path d="M70.6506 13.2686C68.2508 13.2686 67.0518 15.1921 66.9433 18.1685V28.5139H62.2178V9.63834H66.9528V14.8291L68.0795 10.4746C68.6618 9.92914 69.897 8.9541 72.1503 8.9541C75.4942 8.9541 77.8921 11.0962 78.4745 14.6181L79.4927 10.4803C80.1474 9.7904 81.491 8.95981 83.5274 8.95981C87.7143 8.95981 90.2151 11.6207 90.2151 16.4389V28.5253H85.48V17.1897C85.48 14.5763 84.3172 13.2686 82.2085 13.2686C79.7744 13.2686 78.5735 15.0115 78.5735 18.0963V28.5139H73.8498V17.2258C73.8498 15.2282 73.0125 13.2686 70.6506 13.2686Z" fill="#EE3932"/>
        <path d="M114.267 19.0047C114.267 24.8853 109.869 29.0592 103.945 29.0592C98.0203 29.0592 93.6221 24.8777 93.6221 19.0047C93.6221 13.1316 98.0203 8.94824 103.945 8.94824C109.869 8.94824 114.267 13.124 114.267 19.0047ZM103.945 24.739C107.034 24.739 109.361 22.5247 109.361 19.0047C109.361 15.4846 107.034 13.2685 103.945 13.2685C100.818 13.2685 98.5284 15.4827 98.5284 19.0047C98.5284 22.5266 100.856 24.739 103.945 24.739Z" fill="#EE3932"/>
        <path d="M133.563 14.3573L129.129 16.028C128.984 13.8137 127.458 12.6068 125.022 12.6068C123.06 12.6068 121.897 13.4792 121.897 14.785C121.897 18.3069 133.782 15.4388 133.782 23.0263C133.782 27.164 130.075 29.0514 125.532 29.0514C120.732 29.0514 117.244 27.0918 116.553 23.4976L121.023 21.5742C121.214 24.332 123.168 25.3489 125.532 25.3489C127.275 25.3489 128.767 24.6589 128.767 23.3152C128.767 19.6127 117.065 22.6632 117.065 15.0758C117.065 11.5177 120.734 8.94043 125.024 8.94043C129.679 8.94803 132.84 11.054 133.563 14.3573Z" fill="#EE3932"/>
        <path d="M156.793 20.0575L159.665 28.5136H154.689L152.468 21.6541L152.14 26.4057C150.76 28.0023 148.76 29.0553 145.86 29.0553C140.226 29.0553 136.3 24.7712 136.3 19.073C136.3 13.3007 140.19 8.94434 145.816 8.94434C148.543 8.94434 150.614 9.9973 152.068 11.6053V9.63808H156.793V20.0575ZM146.726 24.775C149.742 24.775 152.245 22.5607 152.245 19.073C152.245 15.5149 149.737 13.2284 146.726 13.2284C143.563 13.2284 141.207 15.5872 141.207 19.073C141.201 22.4885 143.563 24.775 146.726 24.775V24.775Z" fill="#EE3932"/>
        <path d="M162.646 1.83398H167.552V6.55334H162.646V1.83398ZM167.44 9.63812V28.5136H162.714V9.63812H167.44Z" fill="#EE3932"/>
        <path d="M190.123 14.3214L185.936 16.7543C185.5 14.6122 183.536 13.2685 181.211 13.2685C178.122 13.2685 175.941 15.3744 175.941 19.0047C175.941 22.6349 178.086 24.739 181.211 24.739C183.464 24.739 185.398 23.2508 185.936 21.3634L190.007 23.7221C188.736 26.7366 185.426 29.0592 181.211 29.0592C175.142 29.0592 171.035 24.9575 171.035 19.0047C171.035 13.0879 175.286 8.94824 181.211 8.94824C185.4 8.94824 188.888 11.2728 190.123 14.3214Z" fill="#EE3932"/>
        <path d="M197.557 1.25781L200.672 11.9338L203.79 1.25781H208.5V15.5508H205.579V4.21335L202.288 15.414H198.939L195.667 4.20004V15.5565H192.751V1.26351L197.557 1.25781Z" fill="#EE3932"/>
        <path d="M211.419 1.25781H214.419V12.7701H221V15.5508H211.419V1.25781Z" fill="#EE3932"/>
        <path d="M38.1961 0C35.6078 0 34.7895 3.48012 34.5212 4.62432L34.1957 6.0023L28.0828 31.9977C28.0733 32.0452 28.06 32.1003 28.0466 32.1536C27.7935 33.2103 27.1617 35.5976 25.5269 36.373C26.0883 37.272 26.9009 38 28.0847 38C30.673 38 31.4913 34.5199 31.7597 33.3757L32.0471 32.1536L38.1961 6.0023C38.4226 5.04246 39.0354 2.44235 40.754 1.63077C40.1925 0.727952 39.3799 0 38.1961 0Z" fill="#EE3932"/>
        <path d="M20.55 1.62697C19.9886 0.727955 19.1759 0 17.9922 0C15.4039 0 14.5855 3.48012 14.3172 4.62432L13.9936 6.0023L7.84265 32.1536L7.73988 32.5964C7.6376 33.0218 7.39585 33.4008 7.05308 33.6733C6.71031 33.9457 6.28618 34.0958 5.84814 34.0998C5.69684 34.1 5.54606 34.0821 5.399 34.0466C4.89657 33.9287 4.4615 33.6165 4.18927 33.1786C3.91704 32.7406 3.82987 32.2127 3.94689 31.7107L9.99321 6.0023C10.2178 5.04246 10.8306 2.44235 12.5491 1.63077C11.9877 0.731754 11.177 0.00379924 9.99321 0.00379924C7.40302 0.00379924 6.58467 3.48392 6.31632 4.62812L5.99278 6.0061L0.152005 30.825C-0.201318 32.3315 0.0590563 33.9164 0.875846 35.2311C1.69264 36.5459 2.99894 37.4827 4.50737 37.8356C6.01581 38.1885 7.60282 37.9284 8.91929 37.1127C10.2358 36.297 11.1738 34.9924 11.5271 33.4859L11.8393 32.1555L17.9884 6.0042C18.2186 5.04247 18.8315 2.44236 20.55 1.62697Z" fill="#EE3932"/>
        <path d="M32.7535 1.62697C32.1921 0.727954 31.3794 0 30.1957 0C27.6074 0 26.789 3.48012 26.5207 4.62432L26.1971 6.0023L20.0842 31.9977L20.0461 32.1536C19.7949 33.2103 19.1612 35.5976 17.5264 36.373C18.0878 37.272 18.9004 38 20.0842 38C22.6725 38 23.4909 34.5199 23.7592 33.3757L24.0466 32.1536L30.1976 6.0023C30.4221 5.04246 31.0349 2.44235 32.7535 1.62697Z" fill="#EE3932"/>
    </g>
    <defs>
        <linearGradient id="paint0_linear" x1="33.7431" y1="17.1041" x2="39.9841" y2="18.9826" gradientUnits="userSpaceOnUse">
            <stop stop-color="#070D19"/>
            <stop offset="1" stop-color="#13294E" stop-opacity="0"/>
        </linearGradient>
        <linearGradient id="paint1_linear" x1="2686.57" y1="8718.02" x2="2954.62" y2="8740.32" gradientUnits="userSpaceOnUse">
            <stop stop-color="#070D19"/>
            <stop offset="1" stop-color="#13294E" stop-opacity="0"/>
        </linearGradient>
        <linearGradient id="paint2_linear" x1="2581.7" y1="9255.66" x2="2848.61" y2="9279.07" gradientUnits="userSpaceOnUse">
            <stop stop-color="#070D19"/>
            <stop offset="1" stop-color="#13294E" stop-opacity="0"/>
        </linearGradient>
        <clipPath id="clip0">
            <rect width="221" height="38" fill="white"/>
        </clipPath>
    </defs>
</svg>
